<mxfile host="Electron" modified="2024-05-03T17:11:33.859Z" agent="Mozilla/5.0 (Windows NT 10.0; Win64; x64) AppleWebKit/537.36 (KHTML, like Gecko) draw.io/24.2.5 Chrome/120.0.6099.109 Electron/28.1.0 Safari/537.36" etag="QQ6wAfLvmaIFY2eNInzk" version="24.2.5" type="device">
  <diagram name="Page-1" id="1sUirBI9B5Q_mOUVWr8-">
    <mxGraphModel dx="830" dy="657" grid="1" gridSize="10" guides="1" tooltips="1" connect="1" arrows="1" fold="1" page="1" pageScale="1" pageWidth="850" pageHeight="1100" math="0" shadow="0">
      <root>
        <mxCell id="0" />
        <mxCell id="1" parent="0" />
        <mxCell id="B0CBj3l1OAyqEAr3n8iD-9" style="edgeStyle=orthogonalEdgeStyle;rounded=0;orthogonalLoop=1;jettySize=auto;html=1;entryX=0.5;entryY=0;entryDx=0;entryDy=0;" edge="1" parent="1" source="B0CBj3l1OAyqEAr3n8iD-2" target="B0CBj3l1OAyqEAr3n8iD-4">
          <mxGeometry relative="1" as="geometry">
            <mxPoint x="80.00000000000004" y="209" as="targetPoint" />
            <mxPoint x="380.05" y="179" as="sourcePoint" />
            <Array as="points">
              <mxPoint x="380" y="130" />
              <mxPoint x="85" y="130" />
            </Array>
          </mxGeometry>
        </mxCell>
        <mxCell id="B0CBj3l1OAyqEAr3n8iD-17" value="Customer Info" style="edgeLabel;html=1;align=center;verticalAlign=middle;resizable=0;points=[];" vertex="1" connectable="0" parent="B0CBj3l1OAyqEAr3n8iD-9">
          <mxGeometry x="0.1042" y="1" relative="1" as="geometry">
            <mxPoint as="offset" />
          </mxGeometry>
        </mxCell>
        <mxCell id="B0CBj3l1OAyqEAr3n8iD-11" style="edgeStyle=orthogonalEdgeStyle;rounded=0;orthogonalLoop=1;jettySize=auto;html=1;entryX=0.326;entryY=-0.036;entryDx=0;entryDy=0;entryPerimeter=0;" edge="1" parent="1" target="B0CBj3l1OAyqEAr3n8iD-3">
          <mxGeometry relative="1" as="geometry">
            <mxPoint x="690" y="110.5" as="targetPoint" />
            <mxPoint x="425" y="220" as="sourcePoint" />
            <Array as="points">
              <mxPoint x="425" y="131" />
              <mxPoint x="692" y="131" />
            </Array>
          </mxGeometry>
        </mxCell>
        <mxCell id="B0CBj3l1OAyqEAr3n8iD-21" value="Customer Info" style="edgeLabel;html=1;align=center;verticalAlign=middle;resizable=0;points=[];" vertex="1" connectable="0" parent="B0CBj3l1OAyqEAr3n8iD-11">
          <mxGeometry x="-0.0512" y="1" relative="1" as="geometry">
            <mxPoint as="offset" />
          </mxGeometry>
        </mxCell>
        <mxCell id="B0CBj3l1OAyqEAr3n8iD-13" style="edgeStyle=orthogonalEdgeStyle;rounded=0;orthogonalLoop=1;jettySize=auto;html=1;entryX=0.689;entryY=0.98;entryDx=0;entryDy=0;entryPerimeter=0;" edge="1" parent="1" source="B0CBj3l1OAyqEAr3n8iD-2" target="B0CBj3l1OAyqEAr3n8iD-3">
          <mxGeometry relative="1" as="geometry">
            <mxPoint x="780" y="470" as="targetPoint" />
            <Array as="points">
              <mxPoint x="440" y="380" />
              <mxPoint x="740" y="380" />
            </Array>
          </mxGeometry>
        </mxCell>
        <mxCell id="B0CBj3l1OAyqEAr3n8iD-22" value="Transaction DETAILS" style="edgeLabel;html=1;align=center;verticalAlign=middle;resizable=0;points=[];" vertex="1" connectable="0" parent="B0CBj3l1OAyqEAr3n8iD-13">
          <mxGeometry x="-0.2022" y="-1" relative="1" as="geometry">
            <mxPoint as="offset" />
          </mxGeometry>
        </mxCell>
        <mxCell id="B0CBj3l1OAyqEAr3n8iD-2" value="Car Rental&lt;div&gt;System&lt;/div&gt;" style="rounded=1;whiteSpace=wrap;html=1;" vertex="1" parent="1">
          <mxGeometry x="330" y="220" width="140" height="120" as="geometry" />
        </mxCell>
        <mxCell id="B0CBj3l1OAyqEAr3n8iD-3" value="Customer" style="rounded=1;whiteSpace=wrap;html=1;" vertex="1" parent="1">
          <mxGeometry x="650" y="248.75" width="130" height="42.5" as="geometry" />
        </mxCell>
        <mxCell id="B0CBj3l1OAyqEAr3n8iD-16" style="edgeStyle=orthogonalEdgeStyle;rounded=0;orthogonalLoop=1;jettySize=auto;html=1;entryX=0.25;entryY=1;entryDx=0;entryDy=0;" edge="1" parent="1">
          <mxGeometry relative="1" as="geometry">
            <mxPoint x="365" y="341.25" as="targetPoint" />
            <mxPoint x="85" y="291.25" as="sourcePoint" />
            <Array as="points">
              <mxPoint x="85" y="380" />
              <mxPoint x="365" y="380" />
            </Array>
          </mxGeometry>
        </mxCell>
        <mxCell id="B0CBj3l1OAyqEAr3n8iD-19" value="Transaction Info" style="edgeLabel;html=1;align=center;verticalAlign=middle;resizable=0;points=[];" vertex="1" connectable="0" parent="B0CBj3l1OAyqEAr3n8iD-16">
          <mxGeometry x="-0.0285" relative="1" as="geometry">
            <mxPoint as="offset" />
          </mxGeometry>
        </mxCell>
        <mxCell id="B0CBj3l1OAyqEAr3n8iD-4" value="Admin" style="rounded=1;whiteSpace=wrap;html=1;" vertex="1" parent="1">
          <mxGeometry x="20" y="250" width="130" height="40" as="geometry" />
        </mxCell>
        <mxCell id="B0CBj3l1OAyqEAr3n8iD-6" value="" style="endArrow=classic;html=1;rounded=0;entryX=1;entryY=0.5;entryDx=0;entryDy=0;exitX=0;exitY=0.5;exitDx=0;exitDy=0;" edge="1" parent="1" source="B0CBj3l1OAyqEAr3n8iD-2">
          <mxGeometry width="50" height="50" relative="1" as="geometry">
            <mxPoint x="330" y="282.5" as="sourcePoint" />
            <mxPoint x="150" y="277.5" as="targetPoint" />
            <Array as="points" />
          </mxGeometry>
        </mxCell>
        <mxCell id="B0CBj3l1OAyqEAr3n8iD-18" value="Retail Info" style="edgeLabel;html=1;align=center;verticalAlign=middle;resizable=0;points=[];" vertex="1" connectable="0" parent="B0CBj3l1OAyqEAr3n8iD-6">
          <mxGeometry x="0.3534" y="-1" relative="1" as="geometry">
            <mxPoint as="offset" />
          </mxGeometry>
        </mxCell>
        <mxCell id="B0CBj3l1OAyqEAr3n8iD-12" value="" style="edgeStyle=none;orthogonalLoop=1;jettySize=auto;html=1;rounded=0;entryX=1;entryY=0.5;entryDx=0;entryDy=0;exitX=0;exitY=0.75;exitDx=0;exitDy=0;" edge="1" parent="1" source="B0CBj3l1OAyqEAr3n8iD-3" target="B0CBj3l1OAyqEAr3n8iD-2">
          <mxGeometry width="100" relative="1" as="geometry">
            <mxPoint x="460" y="250" as="sourcePoint" />
            <mxPoint x="560" y="250" as="targetPoint" />
            <Array as="points" />
          </mxGeometry>
        </mxCell>
        <mxCell id="B0CBj3l1OAyqEAr3n8iD-20" value="Rental Info" style="edgeLabel;html=1;align=center;verticalAlign=middle;resizable=0;points=[];" vertex="1" connectable="0" parent="B0CBj3l1OAyqEAr3n8iD-12">
          <mxGeometry x="-0.0022" relative="1" as="geometry">
            <mxPoint as="offset" />
          </mxGeometry>
        </mxCell>
        <mxCell id="B0CBj3l1OAyqEAr3n8iD-23" value="DATA FLOW DIAGRAM - LEVEL 0" style="text;html=1;align=center;verticalAlign=middle;resizable=0;points=[];autosize=1;strokeColor=none;fillColor=none;" vertex="1" parent="1">
          <mxGeometry x="185" y="468" width="210" height="30" as="geometry" />
        </mxCell>
      </root>
    </mxGraphModel>
  </diagram>
</mxfile>
